<svg width="36" height="36" viewBox="0 0 36 36">
  <g fill="#E04179" fillRule="evenodd" stroke="#E04179" stroke-width=".929" transform="translate(5 4)">
    <path d="M25.2506301,0.00287234043 L0.746520548,0.00287234043 C0.370339726,0.00287234043 0.0626136986,0.313085106 0.0626136986,0.69237766 C0.0626136986,1.07131117 0.370339726,1.38152394 0.746520548,1.38152394 L2.22239452,1.38152394 L2.22239452,26.2216676 C2.22239452,26.4744335 2.35930411,26.7100372 2.58133699,26.8306755 C2.80365479,26.951242 3.07163288,26.9397527 3.28226849,26.7961356 L6.25153973,24.8025878 L9.23192329,26.8017367 C9.45979726,26.9568431 9.76168219,26.9568431 9.98955616,26.8017367 L12.9588274,24.8084761 L15.939211,26.807625 C16.1670849,26.9627314 16.4689699,26.9627314 16.6968438,26.807625 L19.6658301,24.8141489 L22.6464986,26.8132261 C22.7603288,26.8878351 22.891326,26.9282633 23.0223945,26.9282633 C23.1306685,26.9282633 23.2447123,26.8993963 23.3474301,26.847766 C23.569463,26.7271277 23.7063726,26.4915239 23.7063726,26.238758 L23.6949753,1.3989016 L25.2506301,1.3989016 C25.6268822,1.3989016 25.9343233,1.08868883 25.9343233,0.709468085 C25.9343233,0.33024734 25.6268822,0.00287234043 25.2506301,0.00287234043 Z M22.3443288,24.9347154 L20.0478521,23.3953564 C19.8196932,23.24025 19.5178082,23.24025 19.2899342,23.3953564 L16.3209479,25.3945053 L13.3405644,23.3953564 C13.1124055,23.24025 12.8105205,23.24025 12.5826466,23.3953564 L9.61366027,25.388617 L6.63327671,23.3953564 C6.40540274,23.24025 6.10323288,23.24025 5.87528767,23.3953564 L3.58999452,24.9291144 L3.58999452,1.37592287 L22.3387726,1.37592287 L22.3443288,24.9347154 Z"/>
    <path d="M6.73570959 12.8718216L13.8990301 12.8718216C14.274926 12.8718216 14.5827233 12.5616089 14.5827233 12.1823881 14.5827233 11.8030956 14.274926 11.4928828 13.8990301 11.4928828L6.73570959 11.4928828C6.35974247 11.4928828 6.05201644 11.8030956 6.05201644 12.1823881 6.05201644 12.5616089 6.35390137 12.8718216 6.73570959 12.8718216zM17.4776274 12.8718216L19.2670685 12.8718216C19.6433205 12.8718216 19.9507616 12.5616089 19.9507616 12.1823881 19.9507616 11.8030956 19.6433205 11.4928828 19.2670685 11.4928828L17.4776274 11.4928828C17.1014466 11.4928828 16.7940055 11.8030956 16.7940055 12.1823881 16.7940055 12.5616089 17.0958904 12.8718216 17.4776274 12.8718216zM6.73570959 7.33947854L13.8990301 7.33947854C14.274926 7.33947854 14.5827233 7.02955301 14.5827233 6.65033226 14.5827233 6.27103971 14.274926 5.96082694 13.8990301 5.96082694L6.73570959 5.96082694C6.35974247 5.96082694 6.05201644 6.27103971 6.05201644 6.65033226 6.05201644 7.02955301 6.35390137 7.33947854 6.73570959 7.33947854zM17.4776274 7.33947854L19.2670685 7.33947854C19.6433205 7.33947854 19.9507616 7.02955301 19.9507616 6.65033226 19.9507616 6.27103971 19.6433205 5.96082694 19.2670685 5.96082694L17.4776274 5.96082694C17.1014466 5.96082694 16.7940055 6.27103971 16.7940055 6.65033226 16.7940055 7.02955301 17.0958904 7.33947854 17.4776274 7.33947854zM6.73570959 18.4728855L13.8990301 18.4728855C14.274926 18.4728855 14.5827233 18.1626727 14.5827233 17.7834519 14.5827233 17.4041594 14.274926 17.0939466 13.8990301 17.0939466L6.73570959 17.0939466C6.35974247 17.0939466 6.05201644 17.4041594 6.05201644 17.7834519 6.05201644 18.1626727 6.35390137 18.4728855 6.73570959 18.4728855zM17.4776274 18.4728855L19.2670685 18.4728855C19.6433205 18.4728855 19.9507616 18.1626727 19.9507616 17.7834519 19.9507616 17.4041594 19.6433205 17.0939466 19.2670685 17.0939466L17.4776274 17.0939466C17.1014466 17.0939466 16.7940055 17.4041594 16.7940055 17.7834519 16.7940055 18.1626727 17.0958904 18.4728855 17.4776274 18.4728855z"/>
  </g>
</svg>
