<svg xmlns:xlink="http://www.w3.org/1999/xlink" width="36" height="36" viewBox="0 0 36 36">
  <defs>
    <polygon id="eating-out-a" points="0 .002 35 .002 35 14.988 0 14.988"/>
  </defs>
  <g fill="none" fillRule="evenodd" transform="translate(1 2)">
    <g transform="translate(0 16.048)">
      <mask id="eating-out-b" fill="#fff">
        <use xlink:href="#eating-out-a"/>
      </mask>
      <path fill="#E04179" stroke="#E04179" stroke-width=".897" d="M29.7639431,4.23262503 C29.7337586,4.18258989 29.7017355,4.13444715 29.6699422,4.09213301 C29.3530816,3.65453366 28.8816979,3.36507164 28.3439697,3.277794 C27.8091526,3.19028927 27.2665979,3.31480941 26.8252455,3.6281914 L20.9782645,7.75332793 L14.8698124,7.75332793 C14.5816041,7.75332793 14.3467167,7.52184915 14.3467167,7.23647472 C14.3467167,6.95147878 14.5816041,6.7199243 14.8698124,6.7199243 L18.2690916,6.7199243 C19.27851,6.7199243 20.0996967,5.90853744 20.0996967,4.91116518 C20.0996967,4.90556367 20.0990838,4.8579508 20.0987774,4.85295485 C20.0661413,3.85588537 19.2153831,3.07878886 18.2274922,3.10278454 L11.4238774,3.10278454 C10.8208005,3.10778048 10.2333521,3.32131928 9.77039556,3.70244931 L7.21329425,5.8056664 C7.09385866,5.90444985 7.0247561,6.04963504 7.0247561,6.2030711 L7.0247561,12.4042498 C7.0247561,12.6898513 7.25903064,12.9208002 7.54785178,12.9208002 L20.5237351,12.9208002 C21.3733443,12.9198919 22.20043,12.6242228 22.8543762,12.0893539 L29.194728,6.91332793 C30.0560585,6.3068505 30.3058849,5.12969992 29.7639431,4.23262503 Z M28.5585553,6.09391727 L22.1878659,11.2930305 C21.7204659,11.6753717 21.1288039,11.8861855 20.5231223,11.8873966 L8.07094747,11.8873966 L8.07094747,6.44522303 L10.4405066,4.49604758 C10.7187555,4.26721817 11.0707036,4.13914031 11.4283208,4.13588537 L18.2439634,4.13558259 C18.6775782,4.13505272 19.039409,4.45910787 19.0537351,4.91116518 C19.0537351,5.33846986 18.7018637,5.6862179 18.2690916,5.6862179 L14.8698124,5.6862179 C14.0046513,5.6862179 13.3008318,6.38194107 13.3008318,7.23647472 C13.3008318,8.09131117 14.0046513,8.78680725 14.8698124,8.78680725 L21.1455816,8.78680725 C21.2545216,8.78680725 21.3604737,8.75304677 21.4504909,8.69067315 L27.4345278,4.4682671 C27.6499562,4.31536091 27.9121169,4.25593944 28.1745841,4.29734523 C28.4367448,4.34018924 28.6656567,4.48068127 28.823091,4.69770208 C28.8389493,4.7189727 28.852969,4.74062179 28.8664525,4.76280076 C29.1312946,5.20070289 29.0083349,5.77576642 28.5585553,6.09391727 Z" mask="url(#eating-out-b)"/>
      <path fill="#E04179" stroke="#E04179" stroke-width=".897" d="M7.53229987 5.16966748L1.79487179 5.16966748 1.79487179 6.2030711 7.00912758 6.2030711 7.00912758 13.9542038 1.79487179 13.9542038 1.79487179 14.9879859 7.53229987 14.9879859C7.82073796 14.9879859 8.05508912 14.7567343 8.05508912 14.471057L8.05508912 5.6862179C8.05508912 5.40054069 7.82073796 5.16966748 7.53229987 5.16966748zM32.651465.00189240335L2.31796748.00189240335C2.02922295.00189240335 1.79487179.232841308 1.79487179.518745607 1.79487179 2.51288456 3.43724515 4.13588537 5.45569887 4.13588537L29.5134271 4.13588537C31.531651 4.13588537 33.1743308 2.51288456 33.1743308.518745607 33.1746373.233144093 32.9405926.00189240335 32.651465.00189240335zM29.5134271 3.10248175L5.45569887 3.10248175C4.19285335 3.10248175 3.1364728 2.21305218 2.89377111 1.03559881L32.075738 1.03559881C31.8330363 2.21305218 30.7766557 3.10248175 29.5134271 3.10248175z" mask="url(#eating-out-b)"/>
    </g>
    <path fill="#E04179" stroke="#E04179" stroke-width=".897" d="M17.4847545 2.6140146C9.98712633 2.6140146 3.88671826 8.64162206 3.88671826 16.0497756L3.88671826 16.566326C3.88671826 16.8522303 4.12099281 17.0831792 4.40981395 17.0831792L30.5593887 17.0831792C30.8487461 17.0831792 31.0824844 16.8522303 31.0824844 16.566326L31.0824844 16.0497756C31.0824844 8.64131928 24.9826892 2.6140146 17.4847545 2.6140146zM4.93290963 16.0494728C4.93290963 9.21138686 10.5637727 3.64741822 17.4847545 3.64741822 24.40543 3.64741822 30.0365994 9.21138686 30.0365994 16.0494728L4.93290963 16.0494728zM16.4323991 1.06368208L18.5370333 1.06368208C18.8223999 1.06368208 19.0537351.832346796 19.0537351.546980265L19.0537351.546980265C19.0537351.261613734 18.8223999.0302784536 18.5370333.0302784536L16.4323991.0302784536C16.1470326.0302784536 15.9156973.261613734 15.9156973.546980265L15.9156973.546980265C15.9156973.832346796 16.1470326 1.06368208 16.4323991 1.06368208z"/>
    <polygon fill="#E04179" stroke="#E04179" stroke-width=".897" points="16.962 3.131 18.008 3.131 18.008 .547 16.962 .547"/>
    <path stroke="#E04179" strokeLinecap="round" stroke-width="2" d="M10,11 C11.1851852,9.66666667 12.3703704,8.66666667 13.5555556,8 C14.7407407,7.33333333 16.2222222,7 18,7"/>
  </g>
</svg>
