<svg xmlns:xlink="http://www.w3.org/1999/xlink" width="36" height="36" viewBox="0 0 36 36">
  <defs>
    <polygon id="entertainment-a" points="0 0 33 0 33 33 0 33"/>
  </defs>
  <g fill="none" fillRule="evenodd" transform="translate(1 1)">
    <mask id="entertainment-b" fill="#fff">
      <use xlink:href="#entertainment-a"/>
    </mask>
    <path fill="#E04179" stroke="#E04179" stroke-width=".917" d="M31.8810272,6.60058577 C29.9961571,4.71601077 26.5209486,3.29514614 24.117623,2.6513376 C22.2480254,2.15014675 20.1449864,1.86277175 18.3477675,1.86277175 C17.2148681,1.86277175 16.229751,1.97285224 15.4198626,2.18991443 C15.2161547,2.24436443 15.0570102,2.40343516 15.0025602,2.60721687 C14.8291022,3.25397663 14.6803608,3.92980589 14.5564096,4.62260467 C14.5518352,4.64282053 14.5483675,4.66325772 14.5457852,4.68428516 C14.0650315,7.41017907 13.9716992,10.3968132 14.304523,12.9572175 C12.8151163,13.0529108 11.2288358,13.3132083 9.76931016,13.7042449 C7.36627967,14.3481272 3.89114492,15.7686967 2.0062748,17.6535669 C1.85723821,17.8025297 1.79873028,18.0201083 1.85347541,18.2235949 C2.04198455,18.9267967 2.27166321,19.6441644 2.53624004,20.3629339 C2.53653516,20.3638193 2.53683028,20.3647047 2.53742053,20.3655163 C3.44897846,22.8412205 4.77562541,25.3350748 6.26879492,27.3323126 C7.88908821,29.4996144 10.440565,32.083112 13.3940717,32.083112 C13.8183096,32.083112 14.2411455,32.0277766 14.6498157,31.9179913 C16.4525681,31.4349504 17.8681943,29.9299022 18.7440425,27.5651638 C19.4106492,25.7653626 19.7654596,23.4997852 19.7819126,20.9773778 C20.017051,21.0119809 20.2548455,21.030426 20.4931565,21.030426 C23.4464419,21.030426 25.9979187,18.4467071 27.6181382,16.2794053 C29.5456535,13.7010724 31.1962705,10.2962504 32.0337528,7.1706876 C32.0882028,6.96720102 32.02999,6.74962236 31.8810272,6.60058577 Z M14.3442907,30.7777876 C14.0350766,30.8607907 13.7151644,30.9026242 13.3940717,30.9026242 C11.4709096,30.9026242 9.27623516,29.3837791 7.21443943,26.6256431 C5.86270711,24.817726 4.65396138,22.5838742 3.78940163,20.3424967 C3.51388889,19.623137 3.51388889,19.623137 3.37121382,19.1755846 C3.26917541,18.8671821 3.17377724,18.5599602 3.08701138,18.2553205 C4.55775163,16.933912 7.30459919,15.5865327 10.0751303,14.8443748 C11.4982821,14.4630772 13.0473772,14.2126663 14.4921467,14.1281876 C14.680951,15.1130096 14.9354199,16.0041303 15.2524547,16.7958687 C15.2873528,16.8825608 15.3184144,16.9578169 15.35014,17.0318925 C15.5176217,17.4224126 15.6948425,17.7763376 15.8870407,18.1051772 C15.9078467,18.1405919 15.9184711,18.1602175 15.9297596,18.1789577 C15.9530742,18.2181352 15.9775693,18.2556157 16.0017693,18.2942028 C16.0170419,18.3189931 16.0326096,18.3440785 16.0481772,18.3685736 C16.0813047,18.4210315 16.1153175,18.4726041 16.1493303,18.523365 C16.1657833,18.5481553 16.1824577,18.5726504 16.1992059,18.5968504 C16.2341041,18.6475376 16.2692236,18.6980035 16.3050071,18.7472888 C16.3196894,18.7680211 16.334962,18.7879419 16.3499394,18.8080839 C16.3885266,18.8602467 16.4271876,18.9121144 16.4666602,18.9625803 C16.5574102,19.0770138 16.6370193,19.1715266 16.7179565,19.263162 C16.3626297,19.7096077 15.8176132,19.9781687 15.2380675,19.9781687 C14.5648205,19.9781687 13.9373913,19.6159065 13.6004358,19.0328931 C13.4376022,18.7507565 13.0768157,18.6538827 12.7943102,18.8167163 C12.5118785,18.9798449 12.4153736,19.3407053 12.5782071,19.623137 C13.1252157,20.5704785 14.1442717,21.1586565 15.2380675,21.1586565 C16.1496254,21.1586565 17.0090943,20.7496913 17.5869431,20.0655248 C17.7797315,20.2079211 17.9797504,20.3344547 18.1866309,20.445937 C18.2664614,20.4888772 18.3212803,20.5162498 18.3766157,20.5431059 C18.3918882,20.5505577 18.4071608,20.5577882 18.4224333,20.56524 C18.4757028,20.5900303 18.5290461,20.6143041 18.583201,20.6373236 C18.6224522,25.0612754 17.5209096,29.9267297 14.3442907,30.7777876 Z M26.6728626,15.5724407 C24.6104766,18.330798 22.4160974,19.8499382 20.4931565,19.8499382 C20.1718425,19.8499382 19.8522254,19.8078833 19.5429376,19.7248803 C19.4856102,19.7096077 19.4293894,19.6925644 19.3737589,19.6744144 C16.815937,18.8519096 15.8902132,15.4029669 15.5654315,13.4198211 C15.5567992,13.371126 15.5513394,13.3359327 15.5458059,13.3010346 C15.1634016,10.8677541 15.2095144,7.96036016 15.6420894,5.27799675 C15.6420894,5.19444444 15.6420894,5.19444444 15.8691858,4.05744614 C15.9271035,3.78482724 15.9887839,3.51567602 16.0551126,3.25109919 C16.7023888,3.11305589 17.4716242,3.04325955 18.3477675,3.04325955 C20.0461943,3.04325955 22.0379724,3.31595224 23.8121717,3.79146748 C26.5823339,4.53355163 29.3295504,5.88122602 30.8002169,7.20233943 C29.9742443,10.0962315 28.4458815,13.2004717 26.6728626,15.5724407 Z" mask="url(#entertainment-b)"/>
    <path fill="#E04179" stroke="#E04179" stroke-width=".917" d="M28.1643352 11.0130278C27.6173266 10.0656864 26.5981967 9.47713943 25.5044748 9.47713943 24.4107528 9.47713943 23.3913278 10.0656864 22.8446144 11.0130278 22.6814858 11.2951644 22.7783596 11.6562461 23.0604961 11.8191535 23.3429278 11.9822083 23.7040833 11.8854083 23.8669169 11.6032717 24.2035035 11.0198894 24.8309327 10.6576272 25.5044748 10.6576272 26.1780169 10.6576272 26.8054461 11.0198894 27.1420327 11.6032717 27.2513016 11.7925925 27.4498449 11.8983937 27.6539217 11.8983937 27.7538943 11.8983937 27.8553425 11.8727181 27.9484535 11.8191535 28.23059 11.6562461 28.3274638 11.2951644 28.1643352 11.0130278zM19.4011315 7.74359309C18.4538638 7.19687967 17.277065 7.19687967 16.3297236 7.74359309 16.047587 7.90672175 15.950787 8.26758211 16.1139157 8.55001382 16.2767492 8.83215041 16.6375358 8.92902419 16.9199675 8.76619065 17.5030547 8.42923516 18.2275791 8.42923516 18.8108876 8.76619065 19.3942699 9.10277724 19.7565321 9.7302065 19.7565321 10.4037486 19.7565321 10.7297108 20.0208138 10.9939925 20.346776 10.9939925 20.6727382 10.9939925 20.9370199 10.7297108 20.9370199 10.4037486 20.9370199 9.31002663 20.348473 8.29060163 19.4011315 7.74359309zM23.2703278 15.255701C23.0397638 15.0254321 22.6662132 15.0254321 22.4356492 15.255701 21.9595437 15.7318065 21.2595144 15.9197254 20.609287 15.7453083 19.9588382 15.570965 19.4464327 15.0585596 19.2720157 14.408037 19.1876108 14.0933632 18.8642309 13.906551 18.5491882 13.9907346 18.2342193 14.0752132 18.0474809 14.3988144 18.1318858 14.7138571 18.4149077 15.7700986 19.2472254 16.60249 20.3038358 16.8854382 20.5646498 16.9555297 20.8306285 16.9895425 21.094615 16.9895425 21.8996339 16.9895425 22.688126 16.673098 23.2703278 16.090601 23.5008919 15.860037 23.5008919 15.486265 23.2703278 15.255701zM9.70652297 19.6444596C9.38056077 19.6444596 9.11627907 19.9087413 9.11627907 20.2344083 9.11627907 20.9079504 8.75401687 21.5353797 8.17070833 21.8722614 7.58762114 22.2089217 6.86309675 22.2089217 6.27978821 21.8722614 5.99757785 21.7091327 5.63649614 21.8060065 5.4736626 22.0881431 5.31053394 22.3705748 5.40733394 22.7314352 5.68954431 22.8945638 6.1633626 23.1680681 6.69421321 23.3046358 7.22535894 23.3046358 7.75620955 23.3046358 8.28742907 23.1680681 8.76117358 22.8945638 9.70821992 22.3475553 10.2967669 21.3284254 10.2967669 20.2347035 10.2967669 19.9087413 10.0324852 19.6444596 9.70652297 19.6444596zM15.9237096 26.3947839C15.1501211 25.6215644 14.0134589 25.3169248 12.9569224 25.5999467 11.900312 25.8829687 11.0682894 26.7149913 10.7849724 27.771823 10.7008626 28.0865705 10.887601 28.4102455 11.2025699 28.4946504 11.253626 28.508226 11.3049035 28.5148663 11.3555907 28.5148663 11.6161833 28.5148663 11.8547894 28.3410394 11.9253974 28.077348 12.0995193 27.4268254 12.6119248 26.9144199 13.2623736 26.7400766 13.9128961 26.5660285 14.6126303 26.7533571 15.0887358 27.2294626 15.3192998 27.4600266 15.6931455 27.4600266 15.9237096 27.2294626 16.1542736 26.9991937 16.1542736 26.625348 15.9237096 26.3947839z"/>
  </g>
</svg>
