<svg width="36" height="36" viewBox="0 0 36 36">
  <path fill="#E04179" fillRule="evenodd" stroke="#E04179" stroke-width=".5" d="M31.643929,13.7222626 L31.1780547,13.7222626 C30.4034843,11.7447282 29.1040568,9.95008443 27.3717328,8.49479145 C27.1288285,7.62039205 27.3125039,6.67404374 27.9360486,5.69514712 C28.2837111,5.14068376 28.3036455,4.47503406 27.9886328,3.90719244 C27.67362,3.34603996 27.0830532,3 26.4463009,3 C26.3741925,3 26.2953573,3.00668913 26.2232489,3.01305195 C23.8275935,3.30680252 22.3708236,4.37045527 21.4979758,5.3819002 C20.4478513,5.05560133 19.115774,4.95779324 18.866471,4.93829688 C18.2492429,4.87295553 17.6192174,4.83379967 16.9960008,4.83379967 C13.0121562,4.83379967 9.2648992,6.19128456 6.4362653,8.64488894 C3.57498165,11.1312864 2,14.4532536 2,17.9902518 C2,18.9038071 2.10508628,19.8174439 2.32173957,20.7115844 C2.32813827,20.7309992 2.32813827,20.7507403 2.33453696,20.7637922 L2.3412638,20.7963406 C2.56431578,21.6968439 2.89918089,22.5779324 3.3256786,23.4197835 C4.04093799,24.9467807 4.89426155,26.2257907 5.85242529,27.2113764 C7.17810389,28.5688613 7.40788271,30.2918009 7.44053247,30.9833098 L7.44053247,31.3685056 C7.44053247,31.4402098 7.44693116,31.5055512 7.46013873,31.5708925 C7.58474924,32.3799506 8.28721123,33 9.12708113,33 L14.0164233,33 C14.948336,33 15.702972,32.2495942 15.702972,31.3226606 L15.702972,31.100859 C16.3987072,31.1531484 17.100759,31.1595112 17.803221,31.1269629 L17.803221,31.3226606 C17.803221,32.2495942 18.557857,33 19.4896876,33 L24.3791118,33 C25.3109425,33 26.0655785,32.2495942 26.0655785,31.3226606 L26.0655785,30.1350143 C26.0723053,29.8610048 26.1771455,28.5621722 27.4175902,27.4398672 C27.476573,27.3875778 27.5422007,27.33537 27.6011835,27.2830806 L27.6143091,27.2700286 C27.6341614,27.2569767 27.647369,27.2439247 27.6604945,27.2244284 C29.294459,25.769217 30.528505,23.9939879 31.2436824,22.0559358 L31.6308035,22.0559358 C32.9369579,22.0559358 33.9998797,20.9986459 33.9998797,19.6998132 L33.9998797,16.0650069 C34.0130053,14.7728634 32.9500834,13.7222626 31.643929,13.7222626 Z M26.4463009,4.75540636 C26.4399022,4.75540636 26.4399022,4.75540636 26.4463009,4.75540636 L26.4399022,4.74904354 L26.4399022,4.75540636 L26.3280891,3.88100696 L26.4463009,4.75540636 Z M32.2413047,19.7065023 C32.2413047,20.0328012 31.9720673,20.3005294 31.643929,20.3005294 L30.6201376,20.3005294 C30.2330165,20.3005294 29.885354,20.5547978 29.7735409,20.9202526 C29.1960996,22.7996525 28.0476156,24.5357256 26.4658251,25.9387292 L26.4526996,25.9517812 L26.4463009,25.9584703 L26.2691062,26.1149306 L26.249582,26.1346717 C24.4969955,27.7138767 24.3198009,29.5738618 24.3070035,30.1089104 L24.3070035,31.2445936 L19.5816483,31.2445936 L19.5816483,30.1806146 C19.5816483,29.932709 19.4765621,29.6911663 19.2862419,29.5280168 C19.1025665,29.3585046 18.8465366,29.2801113 18.6036322,29.3062152 C18.0656496,29.3648674 17.5275848,29.3909713 16.9960008,29.3909713 C16.3066644,29.3909713 15.6177381,29.345371 14.9419373,29.2539258 C14.6859074,29.221459 14.4298776,29.2998523 14.2394753,29.4630018 C14.0491551,29.6325141 13.9376702,29.8740568 13.9376702,30.1286515 L13.9376702,31.2445936 L9.21904187,31.2445936 L9.21904187,30.9246576 C9.17966528,30.0435691 8.8973023,27.79227 7.13200046,25.9845742 C6.30517406,25.136034 5.56366361,24.0200919 4.93372018,22.6626885 C4.92699334,22.649555 4.92059465,22.6431922 4.92059465,22.6301402 C4.54627092,21.9058383 4.25759128,21.1487433 4.06718905,20.372152 C4.06718905,20.3654629 4.06079035,20.3591001 4.06079035,20.3524109 L4.06079035,20.3396853 C3.87686885,19.5695384 3.77850941,18.7798951 3.77850941,17.9966146 C3.77850941,11.7121799 9.71124928,6.60233956 17.0023995,6.60233956 C17.5670435,6.60233956 18.1377579,6.6351326 18.695675,6.69378482 C18.7088006,6.69378482 18.7219261,6.69378482 18.7350516,6.70014765 C19.4701634,6.74599264 20.8353006,6.93532756 21.379682,7.22875183 C21.7802568,7.44419066 22.2788629,7.32019708 22.5348928,6.94837952 C23.1059354,6.10652842 24.2476925,5.04254937 26.4399022,4.77514745 C25.5538468,6.18459543 25.2914183,7.64649596 25.6785394,9.01034367 C25.6849381,9.26493837 25.8095486,9.50648111 26.0066777,9.66963055 C27.7783782,11.0921305 29.0650083,12.8998262 29.7212849,14.8904125 C29.8391685,15.2492597 30.1805144,15.4971653 30.5611548,15.4971653 L31.6506558,15.4971653 C31.9787941,15.4971653 32.2477034,15.7648119 32.2477034,16.0911108 L32.2477034,19.7065023 L32.2413047,19.7065023 Z"/>
</svg>
