<svg xmlns:xlink="http://www.w3.org/1999/xlink" width="36" height="36" viewBox="0 0 36 36">
  <defs>
    <polygon id="groceries-a" points="0 0 21.998 0 21.998 36.077 0 36.077"/>
  </defs>
  <g fill="none" fillRule="evenodd" transform="translate(7)">
    <mask id="groceries-b" fill="#fff">
      <use xlink:href="#groceries-a"/>
    </mask>
    <path fill="#E04179" stroke="#E04179" d="M21.5142968,12.2053518 C21.2487355,12.1234098 20.9625935,12.2138335 20.7891484,12.4283203 L20.5047097,12.7742018 L20.5047097,5.31503657 C20.5047097,4.93379067 20.1996903,4.62499874 19.8232774,4.62499874 L10.0092903,4.62499874 C9.7132129,2.61684489 7.99877419,1.0720227 5.93460645,1.0720227 L5.92907097,1.0720227 C3.65810323,1.07590416 1.81350968,2.94978815 1.81691613,5.24991425 L1.82969032,13.1745675 L1.21141935,12.4232888 C1.08169032,12.2660177 0.883264516,12.1750189 0.681432258,12.1750189 C0.304877419,12.1750189 0,12.4917175 0,12.8725322 L0,35.6991274 C0,36.0803733 0.304877419,36.389309 0.681432258,36.389309 L21.315871,36.389309 C21.6917161,36.389309 21.9967355,36.0803733 21.9967355,35.6991274 L21.997729,12.8652005 C21.997729,12.5614401 21.8015742,12.2940504 21.5142968,12.2053518 Z M10.095729,14.856966 C10.0806839,14.7060202 10.0707484,14.5543556 10.0701806,14.402691 L10.0701806,14.3673266 C10.0806839,11.8432257 12.111071,9.79295082 14.6054452,9.79295082 C17.1070581,9.79295082 19.1418452,11.8538638 19.1418452,14.3870214 C19.1418452,14.402116 19.1407097,14.4185044 19.1407097,14.434174 L17.8861419,15.9610265 L14.9741935,12.4232888 C14.8444645,12.2660177 14.6531355,12.1750189 14.4507355,12.1750189 C14.2490452,12.1750189 14.0571484,12.2660177 13.9274194,12.4232888 L11.0099355,15.9672081 L10.095729,14.856966 Z M19.1418452,10.5729811 C18.0590194,9.2544338 16.4278968,8.41316267 14.6060129,8.41316267 C12.7808645,8.41316267 11.1469032,9.2571652 10.0640774,10.5797377 L10.0564129,6.00464313 L19.1418452,6.00464313 L19.1418452,10.5729811 Z M3.17963871,5.24775788 C3.17750968,3.70854224 4.41163871,2.45454224 5.93077419,2.45224212 C7.1167871,2.45224212 8.12807742,3.20927112 8.51896774,4.27006053 L5.9426954,7 C5.74313411,7.20269861 5.74370185,7.53017907 5.94383088,7.73230265 C6.04361153,7.83278941 6.1739083,7.88339218 6.30420508,7.88339218 C6.43563733,7.88339218 6.56650185,7.83221438 6.6662825,7.73115259 L8.69298065,5.55942497 L8.6968129,7.7461261 L6.36150968,10.1171828 C6.16251613,10.3193064 6.16251613,10.6473619 6.36264516,10.8489105 C6.42916559,10.916285 6.54947957,10.9666482 6.7235871,11 C6.81083011,11 7.46932903,10.4031459 8.69908387,9.20943758 L8.70575484,13.1678108 L8.09259355,12.4232888 C7.96329032,12.2660177 7.77153548,12.1750189 7.56970323,12.1750189 C7.36730323,12.1750189 7.17554839,12.2660177 7.0463871,12.4232888 L4.12947097,15.9672081 L3.19525161,14.8328146 L3.17963871,5.24775788 Z M20.6344387,35.0089458 L1.36286452,35.0089458 L1.36286452,14.7620858 L3.60544516,17.4861538 C3.73517419,17.643425 3.92707097,17.7344237 4.12890323,17.7344237 C4.33130323,17.7344237 4.52305806,17.643425 4.65221935,17.4861538 L7.56913548,13.9422346 L8.9075871,15.5685675 C8.9119871,15.574174 8.9163871,15.5792055 8.92092903,15.5842371 L10.4866194,17.4861538 C10.6157806,17.643425 10.8076774,17.7344237 11.0093677,17.7344237 C11.2117677,17.7344237 11.4036645,17.644 11.5328258,17.4867289 L14.4503097,13.9428096 L17.3632516,17.4811223 C17.4924129,17.6383934 17.6843097,17.7293922 17.8861419,17.7293922 L17.8867097,17.7293922 C18.0889677,17.7293922 18.2808645,17.6378184 18.4100258,17.4805473 L20.3461677,15.1237806 C20.347729,15.1220555 20.3488645,15.1209054 20.3505677,15.1187491 L20.6344387,14.7732989 L20.6344387,35.0089458 Z" mask="url(#groceries-b)"/>
  </g>
</svg>
