<svg width="36" height="36" viewBox="0 0 36 36">
  <g fill="#50385B" fillRule="evenodd" stroke="#E04179" stroke-width="1.136" transform="translate(6 3)">
    <path d="M16.7027372 3.8512963C16.4069343 1.74981481 14.6041971.164814815 12.5100365.164814815 11.1627737.164814815 9.88321168.82462963 9.08777372 1.93 8.92518248 2.15555556 8.97372263 2.47166667 9.19616788 2.63666667 9.41770073 2.80092593 9.72992701 2.75240741 9.89178832 2.52666667 10.5012774 1.68111111 11.4791971 1.17611111 12.5100365 1.17611111 14.1116788 1.17611111 15.4903285 2.38777778 15.7162409 3.99444444 15.7518248 4.24611111 15.9649635 4.42851852 16.2087591 4.42851852 16.2322993 4.42851852 16.2558394 4.42703704 16.2793796 4.42333333 16.5523723 4.3837037 16.7412409 4.12759259 16.7027372 3.8512963zM23.8994526 9.51240741L22.404562 6.98425926C22.314781 6.83148148 22.1523723 6.73814815 21.9777372 6.73814815L20.5448905 6.73814815C20.269708 6.73814815 20.0465328 6.96537037 20.0465328 7.24388889 20.0465328 7.52314815 20.269708 7.74944444 20.5448905 7.74944444L21.695438 7.74944444 22.5921533 9.26722222 2.42718978 9.26722222 3.32390511 7.74944444 3.8520073 7.74944444C4.12645985 7.74944444 4.35036496 7.52314815 4.35036496 7.24388889 4.35036496 6.96537037 4.12645985 6.73814815 3.8520073 6.73814815L3.04233577 6.73814815C2.8669708 6.73814815 2.70437956 6.83148148 2.61459854 6.98425926L1.11989051 9.51240741C1.02718978 9.6687037 1.025 9.86314815 1.11350365 10.0216667 1.20182482 10.1807407 1.36715328 10.2785185 1.54689781 10.2785185L23.4724453 10.2785185C23.6520073 10.2785185 23.8175182 10.1807407 23.9058394 10.0216667 23.9941606 9.86314815 23.9921533 9.6687037 23.8994526 9.51240741z"/>
    <path d="M20.7363582,8.27405852 C20.6666502,8.15979927 21.234854,4.65425926 21.1058394,4.62388889 L14.3127737,3.0112963 C14.1843066,2.98092593 14.0489051,3.00407407 13.9363139,3.07425926 C13.8244526,3.14518519 13.7445255,3.25814815 13.7145985,3.38907407 L12.5226721,9.03591038 C12.4598984,9.30776223 12.6259567,9.57979927 12.8940224,9.64276223 C13.1620881,9.70646593 13.4307013,9.53776223 13.4927451,9.26591038 L14.5715328,4.11166667 L20.3937956,5.49333333 L19.4784672,9.46314815 C19.4156934,9.73518519 19.5824818,10.0072222 19.8505474,10.0709259 C19.8890511,10.0794444 19.9268248,10.0838889 19.9645985,10.0838889 C20.1906934,10.0838889 20.3959854,9.92611111 20.4487226,9.69333333 L21.4771898,5.23148148 C21.5078467,5.1012963 20.8062487,8.38831778 20.7363582,8.27405852 Z"/>
    <path d="M13.3716,9.53426355 L12.3189781,2.14833333 C12.3040146,2.01537037 12.2370438,1.89296296 12.1328467,1.81055556 C12.0288321,1.72740741 11.8976277,1.68981481 11.7658759,1.705 L3.43156934,2.70462963 C3.15857664,2.73796296 2.96313869,2.98888889 2.99525547,3.26666667 L3.75218978,9.7662963 C3.78229927,10.0238889 3.99744526,10.2125926 4.24635036,10.2125926 C4.26624088,10.2125926 4.28613139,10.2111111 4.30620438,10.2090741 C4.57919708,10.1764815 4.77445255,9.92481481 4.74233577,9.64759259 L4.04379562,3.64944444 L11.3879562,2.76907407 L12.382184,9.65296725 C12.4143008,9.93000429 12.6610161,10.1268561 12.9352862,10.095745 C13.2084614,10.0631524 13.4037168,9.81130058 13.3716,9.53426355 Z"/>
    <path d="M23.9706204,9.74685185 C23.9563869,9.47833333 23.7383212,9.26722222 23.4724453,9.26722222 L1.54744526,9.26722222 C1.28229927,9.26722222 1.06350365,9.47833333 1.05,9.74685185 L0.0527372263,29.4683333 C0.046350365,29.6072222 0.0954379562,29.7424074 0.18959854,29.842963 C0.283759124,29.9427778 0.414233577,30 0.551094891,30 L24.4689781,30 C24.6051095,30 24.7363139,29.9427778 24.830292,29.842963 C24.9244526,29.7424074 24.9735401,29.6072222 24.9671533,29.4683333 L23.9706204,9.74685185 Z M1.075,28.9887037 L2.02080292,10.2785185 L22.9990876,10.2785185 L23.9443431,28.9887037 L1.075,28.9887037 Z"/>
    <path d="M16.2472628 11.2898148C15.4226277 11.2898148 14.7518248 11.9703704 14.7518248 12.8066667 14.7518248 13.6437037 15.4226277 14.3235185 16.2472628 14.3235185 17.0713504 14.3235185 17.7421533 13.6437037 17.7421533 12.8066667 17.7421533 11.9703704 17.0713504 11.2898148 16.2472628 11.2898148zM16.2472628 13.3122222C15.9720803 13.3122222 15.7490876 13.0859259 15.7490876 12.8066667 15.7490876 12.5281481 15.9720803 12.3011111 16.2472628 12.3011111 16.5217153 12.3011111 16.7456204 12.5281481 16.7456204 12.8066667 16.7456204 13.0859259 16.5217153 13.3122222 16.2472628 13.3122222zM8.77262774 11.2898148C7.9479927 11.2898148 7.27791971 11.9703704 7.27791971 12.8066667 7.27791971 13.6437037 7.9479927 14.3235185 8.77262774 14.3235185 9.59671533 14.3235185 10.2675182 13.6437037 10.2675182 12.8066667 10.2675182 11.9703704 9.59671533 11.2898148 8.77262774 11.2898148zM8.77262774 13.3122222C8.49744526 13.3122222 8.27445255 13.0859259 8.27445255 12.8066667 8.27445255 12.5281481 8.49744526 12.3011111 8.77262774 12.3011111 9.04708029 12.3011111 9.2709854 12.5281481 9.2709854 12.8066667 9.2709854 13.0859259 9.04708029 13.3122222 8.77262774 13.3122222z"/>
    <path d="M16.2472628,12.8066667 L16.2087591,12.8066667 C15.9335766,12.8066667 15.7105839,13.0331481 15.7105839,13.3122222 C15.7105839,13.3816667 15.7240876,13.4475926 15.7490876,13.5075926 L15.7490876,16.0937037 C15.7490876,17.9057407 14.2956204,19.3807407 12.5100365,19.3807407 C10.7237226,19.3807407 9.2709854,17.9057407 9.2709854,16.0937037 L9.2709854,13.3122222 C9.2709854,13.0338889 9.04781022,12.8066667 8.77262774,12.8066667 C8.49744526,12.8066667 8.27445255,13.0338889 8.27445255,13.3122222 L8.27445255,16.0937037 C8.27445255,18.4635185 10.1740876,20.392037 12.5100365,20.392037 C14.8452555,20.392037 16.7456204,18.4635185 16.7456204,16.0937037 L16.7456204,13.3122222 C16.7456204,13.0338889 16.5217153,12.8066667 16.2472628,12.8066667 Z"/>
  </g>
</svg>
