<svg xmlns:xlink="http://www.w3.org/1999/xlink" width="36" height="36" viewBox="0 0 36 36">
  <defs>
    <polygon id="travel-a" points="0 0 36 0 36 36 0 36"/>
  </defs>
  <g fill="none" fillRule="evenodd">
    <mask id="travel-b" fill="#fff">
      <use xlink:href="#travel-a"/>
    </mask>
    <path fill="#E04179" stroke="#E04179" d="M5.0531083,20.2364511 C4.76046034,20.3714042 4.63118404,20.711248 4.76179554,21.0016855 L6.09866791,23.8229511 C6.16442668,23.9633886 6.28416581,24.0728886 6.43151504,24.126748 C6.49617703,24.1498105 6.56451083,24.1617167 6.63346454,24.1617167 C6.71968053,24.1624198 6.80465669,24.1443261 6.8830522,24.109498 L16.9844379,19.4714511 L16.0694898,28.8751855 C16.0517983,29.0603417 16.1242331,29.2423105 16.2652401,29.3659198 C16.7080031,29.7262948 17.259919,29.9315605 17.8341995,29.9500292 C17.9925641,29.9498417 18.1499751,29.930248 18.3034281,29.8918105 C19.1234337,29.6814355 19.759372,28.9632636 20.1929793,27.7364511 L24.1682612,16.1656855 L32.0410494,12.555748 C34.3584856,11.4928105 35.5526819,9.33768545 34.7507493,7.65529483 C34.2956833,6.77601358 33.4237479,6.17798233 32.4274,6.0606542 C31.3201826,5.8964042 30.1887408,6.0675917 29.1830943,6.5517167 L20.0977983,10.7395292 L10.3294982,6.98366983 C9.09934673,6.5282792 8.12512513,6.53999795 7.4418825,7.02487295 C6.86850802,7.48720108 6.5423846,8.18226358 6.55635655,8.9112167 C6.56231728,9.09613858 6.65692598,9.26718545 6.81171419,9.3728417 L13.3893551,13.8177167 L9.62236497,15.5700448 L3.30585164,13.992748 C3.04696525,13.930123 2.77758797,14.0447792 2.64645192,14.2731073 L1.0721041,17.0590292 C0.99032289,17.2066386 0.977447715,17.3818573 1.03686426,17.539498 C1.09575627,17.697373 1.22131307,17.8223886 1.3811083,17.8826698 L6.05732429,19.7811073 L5.0531083,20.2364511 Z M7.77420508,8.61932608 C7.80901574,8.3723417 7.93624154,8.14748233 8.13089512,7.9883417 C8.46975066,7.74885733 9.08761602,7.78401358 9.91353467,8.08762295 L18.61248,11.422873 L14.6431588,13.2451386 L7.77420508,8.61932608 Z M2.42666791,17.0533573 L3.4604968,15.2486698 L9.5391055,16.7320292 C9.6700508,16.7646073 9.80829203,16.7523261 9.93141686,16.697248 L29.6884211,7.62618545 C30.4737591,7.24551358 31.358379,7.1067167 32.2254505,7.22901358 C32.8336357,7.28395108 33.3753467,7.62895108 33.6754337,8.15170108 C34.1740845,9.20324795 33.1939021,10.7395292 31.5358657,11.4986698 L24.6908979,14.6530292 L25.1070522,13.4436073 C25.2121041,13.1325448 25.0403874,12.7963573 24.7238965,12.6930917 C24.4068334,12.5899667 24.065069,12.7588105 23.9601602,13.0699198 L19.0699779,27.3741073 C18.7786174,28.1861698 18.4161574,28.6710448 18.0123061,28.7759511 C17.7619554,28.8232011 17.5030213,28.7750605 17.2873383,28.641748 L18.4757647,16.3756855 C18.5068558,16.0532323 18.2661854,15.7670605 17.9377731,15.7364511 C17.6097422,15.7055136 17.3186202,15.9424667 17.2873383,16.2649198 L17.103271,18.1397323 L6.90670438,22.8124198 L6.06924575,21.0600917 L7.74459217,20.289373 C7.9602752,20.1958105 8.09923173,19.9861855 8.09923173,19.7549042 C8.09923173,19.5232948 7.9602752,19.313623 7.74459217,19.2204355 L2.42666791,17.0533573 Z" mask="url(#travel-b)"/>
  </g>
</svg>
