<svg width="18px" height="24px" viewBox="0 0 18 24" version="1.1" xmlns="http://www.w3.org/2000/svg" xmlns:xlink="http://www.w3.org/1999/xlink">
    <!-- Generator: Sketch 52.3 (67297) - http://www.bohemiancoding.com/sketch -->
    <title>rubbish-bin</title>
    <desc>Created with Sketch.</desc>
    <defs>
        <polygon id="path-1" points="0 0.015706422 24 0.015706422 24 24.0157064 0 24.0157064"></polygon>
    </defs>
    <g id="Details-Modal" stroke="none" stroke-width="1" fill="none" fill-rule="evenodd">
        <g id="Change-category" transform="translate(-324.000000, -565.000000)">
            <g id="Bubble" transform="translate(-119.000000, 100.000000)">
                <g id="rubbish-bin" transform="translate(440.000000, 465.000000)">
                    <mask id="mask-2" fill="white">
                        <use xlink:href="#path-1"></use>
                    </mask>
                    <g id="Clip-2"></g>
                    <path d="M5.10880328,22.8433761 C5.13587705,23.4899083 5.67071311,23.9999266 6.32085246,23.9999266 L17.6466148,23.9999266 C18.2969754,23.9999266 18.8315164,23.4899083 18.858959,22.8433761 L19.6677787,5.856 L4.29990984,5.856 L5.10880328,22.8433761 Z M14.5459672,10.0753028 C14.5459672,9.80469725 14.7663934,9.58502752 15.0386803,9.58502752 L15.8268443,9.58502752 C16.0988361,9.58502752 16.3196311,9.80469725 16.3196311,10.0753028 L16.3196311,19.7805505 C16.3196311,20.0515229 16.0988361,20.2708257 15.8268443,20.2708257 L15.0386803,20.2708257 C14.7666885,20.2708257 14.5459672,20.0515229 14.5459672,19.7805505 L14.5459672,10.0753028 Z M11.0971967,10.0753028 C11.0971967,9.80469725 11.317623,9.58502752 11.5896885,9.58502752 L12.3780738,9.58502752 C12.6500656,9.58502752 12.8705656,9.80469725 12.8705656,10.0753028 L12.8705656,19.7805505 C12.8705656,20.0515229 12.6500656,20.2708257 12.3780738,20.2708257 L11.5896885,20.2708257 C11.317623,20.2708257 11.0971967,20.0515229 11.0971967,19.7805505 L11.0971967,10.0753028 Z M7.64813115,10.0753028 C7.64813115,9.80469725 7.86855738,9.58502752 8.14091803,9.58502752 L8.9290082,9.58502752 C9.20107377,9.58502752 9.42179508,9.80469725 9.42179508,10.0753028 L9.42179508,19.7805505 C9.42179508,20.0515229 9.20107377,20.2708257 8.9290082,20.2708257 L8.14091803,20.2708257 C7.86885246,20.2708257 7.64813115,20.0515229 7.64813115,19.7805505 L7.64813115,10.0753028 Z" id="Fill-1" fill="#E04179" mask="url(#mask-2)"></path>
                    <path d="M20.206377,1.25137615 L14.9813607,1.25137615 L14.9813607,0.268550459 C14.9813607,0.128954128 14.8675328,0.015706422 14.7272213,0.015706422 L9.24054098,0.015706422 C9.10015574,0.015706422 8.98632787,0.128954128 8.98632787,0.268550459 L8.98632787,1.25108257 L3.76131148,1.25108257 C3.34089344,1.25108257 3,1.59023853 3,2.00880734 L3,4.38811009 L20.9676885,4.38811009 L20.9676885,2.00880734 C20.9676885,1.59053211 20.6267951,1.25137615 20.206377,1.25137615 Z" id="Fill-3" fill="#E04179" mask="url(#mask-2)"></path>
                </g>
            </g>
        </g>
    </g>
</svg>